<svg width="395" height="480" viewBox="0 0 395 480" fill="none" xmlns="http://www.w3.org/2000/svg">
<path d="M393.553 74.6948C393.553 64.0103 386.984 54.8591 377.657 51.0501C386.974 47.2411 393.553 38.0899 393.553 27.4055C393.553 13.2977 382.113 1.87076 368.011 1.87076C356.436 1.87076 346.674 9.56589 343.529 20.1153C340.529 9.35374 330.652 1.44647 318.932 1.44647C307.212 1.44647 297.904 8.90052 294.605 19.1896C291.306 8.90052 281.66 1.44647 270.278 1.44647C258.896 1.44647 249.25 8.90052 245.951 19.1896C242.652 8.90052 233.006 1.44647 221.624 1.44647C210.242 1.44647 200.596 8.90052 197.297 19.1896C193.998 8.90052 184.353 1.44647 172.97 1.44647C161.588 1.44647 151.942 8.90052 148.643 19.1896C145.344 8.90052 135.699 1.44647 124.316 1.44647C112.934 1.44647 103.288 8.90052 99.9894 19.1896C96.6905 8.90052 87.0446 1.44647 75.6624 1.44647C64.2802 1.44647 54.6343 8.90052 51.3354 19.1896C48.0269 8.90052 38.381 1.44647 26.9891 1.44647C12.8868 1.44647 1.44678 12.8831 1.44678 26.9812C1.44678 37.6656 8.01564 46.8168 17.3432 50.6258C8.02529 54.4348 1.44678 63.586 1.44678 74.2705C1.44678 84.9549 8.01564 94.1061 17.3432 97.9151C8.02529 101.724 1.44678 110.875 1.44678 121.56C1.44678 132.244 8.01564 141.395 17.3432 145.204C8.02529 149.013 1.44678 158.165 1.44678 168.849C1.44678 179.534 8.01564 188.685 17.3432 192.494C8.02529 196.303 1.44678 205.454 1.44678 216.138C1.44678 226.823 8.01564 235.974 17.3432 239.783C8.02529 243.592 1.44678 252.743 1.44678 263.428C1.44678 274.112 8.01564 283.263 17.3432 287.072C8.02529 290.881 1.44678 300.033 1.44678 310.717C1.44678 321.401 8.01564 330.553 17.3432 334.362C8.02529 338.171 1.44678 347.322 1.44678 358.006C1.44678 368.691 8.01564 377.842 17.3432 381.651C8.02529 385.46 1.44678 394.611 1.44678 405.296C1.44678 415.98 8.01564 425.131 17.3432 428.94C8.02529 432.749 1.44678 441.901 1.44678 452.585C1.44678 466.693 12.8868 478.12 26.9891 478.12C38.381 478.12 48.0172 470.666 51.3161 460.377C54.615 470.666 64.2609 478.12 75.6431 478.12C87.0253 478.12 96.6712 470.666 99.9701 460.377C103.269 470.666 112.915 478.12 124.297 478.12C135.679 478.12 145.325 470.666 148.624 460.377C151.923 470.666 161.559 478.12 172.951 478.12C184.343 478.12 193.979 470.666 197.278 460.377C200.577 470.666 210.223 478.12 221.605 478.12C232.987 478.12 242.633 470.666 245.932 460.377C249.231 470.666 258.867 478.12 270.259 478.12C281.651 478.12 291.287 470.666 294.586 460.377C297.885 470.666 307.531 478.12 318.913 478.12C330.295 478.12 340.25 470.425 343.394 459.875C346.394 470.637 356.272 478.544 367.991 478.544C382.103 478.544 393.534 467.107 393.534 453.009C393.534 442.325 386.965 433.174 377.637 429.365C386.955 425.556 393.534 416.404 393.534 405.72C393.534 395.035 386.965 385.884 377.637 382.075C386.955 378.266 393.534 369.115 393.534 358.431C393.534 347.746 386.965 338.595 377.637 334.786C386.955 330.977 393.534 321.826 393.534 311.141C393.534 300.457 386.965 291.306 377.637 287.497C386.955 283.688 393.534 274.536 393.534 263.852C393.534 253.168 386.965 244.016 377.637 240.207C386.955 236.398 393.534 227.247 393.534 216.563C393.534 205.878 386.965 196.727 377.637 192.918C386.955 189.109 393.534 179.958 393.534 169.273C393.534 158.589 386.965 149.438 377.637 145.629C386.955 141.82 393.534 132.669 393.534 121.984C393.534 111.3 386.965 102.148 377.637 98.3394C386.955 94.5304 393.534 85.3792 393.534 74.6948H393.553Z" fill="#FFE783"/>
</svg>
